<svg xmlns="http://www.w3.org/2000/svg" viewBox="0 0 290 370" width="290" height="370" role="img" aria-label="Discover: consultation sketch, floor plan ideation and site notes">
  <defs>
    <pattern id="dsc-tri" width="30" height="30" patternUnits="userSpaceOnUse">
      <path d="M 0 30 L 15 0 L 30 30" fill="none" stroke="#e2e8f0" stroke-width="1"/>
    </pattern>
    <linearGradient id="dsc-veil" x1="0" y1="0" x2="0" y2="1">
      <stop offset="0" stop-color="#f4f7f5" stop-opacity="0.15"/>
      <stop offset="1" stop-color="#f4f7f5" stop-opacity="0.9"/>
    </linearGradient>
  </defs>

  <rect width="290" height="370" fill="#f4f7f5"/>
  <rect width="290" height="370" fill="url(#dsc-tri)"/>
  <rect width="290" height="370" fill="url(#dsc-veil)"/>

  <g stroke="#cbd5e1" stroke-width="1" opacity="0.7">
    <path d="M 20 20 L 34 20 M 20 20 L 20 34"/>
    <path d="M 270 20 L 256 20 M 270 20 L 270 34"/>
    <path d="M 20 350 L 34 350 M 20 350 L 20 336"/>
    <path d="M 270 350 L 256 350 M 270 350 L 270 336"/>
  </g>

  <g opacity="0.55" fill="none" stroke="#5eead4" stroke-width="1.6" stroke-linecap="round">
    <path d="M 42 52 C 74 34, 118 40, 138 62"/>
    <path d="M 50 62 C 82 44, 126 50, 146 72"/>
    <path d="M 176 46 C 196 38, 220 44, 232 60"/>
  </g>

  <g stroke="#94a3b8" stroke-width="1" opacity="0.85">
    <path d="M 44 92 L 246 92"/>
    <path d="M 44 87 L 44 97 M 145 87 L 145 97 M 246 87 L 246 97"/>
  </g>

  <rect x="44" y="108" width="202" height="164" fill="#ffffff" fill-opacity="0.6" stroke="#475569" stroke-width="2"/>

  <g stroke="#64748b" stroke-width="1.6" fill="none">
    <path d="M 142 108 L 142 196"/>
    <path d="M 44 196 L 246 196"/>
    <path d="M 196 196 L 196 272"/>
  </g>

  <g stroke="#94a3b8" stroke-width="1" fill="none" opacity="0.9">
    <path d="M 142 152 A 22 22 0 0 1 164 174"/>
    <path d="M 142 152 L 142 174"/>
    <path d="M 196 226 A 20 20 0 0 0 176 246"/>
    <path d="M 196 226 L 176 226"/>
  </g>

  <g fill="#e2ede7" stroke="#94a3b8" stroke-width="1">
    <rect x="62" y="126" width="46" height="30" rx="2"/>
    <rect x="164" y="126" width="58" height="22" rx="2"/>
    <rect x="62" y="216" width="52" height="38" rx="2"/>
  </g>

  <g stroke="#cbd5e1" stroke-width="1" stroke-dasharray="3 4" fill="none">
    <path d="M 44 240 L 246 240"/>
    <path d="M 88 108 L 88 272"/>
  </g>

  <circle cx="222" cy="312" r="19" fill="#ffffff" fill-opacity="0.7" stroke="#94a3b8" stroke-width="1"/>
  <polygon points="222,296 227,314 217,314" fill="#0f5339"/>
  <polygon points="222,328 227,314 217,314" fill="#cbd5e1"/>

  <g stroke="#64748b" stroke-width="1.4" stroke-linecap="round" opacity="0.75">
    <path d="M 46 306 L 118 306"/>
    <path d="M 46 320 L 146 320"/>
    <path d="M 46 334 L 96 334"/>
  </g>
  <circle cx="164" cy="306" r="4" fill="#0f5339"/>
</svg>
